<mxfile host="Electron" agent="Mozilla/5.0 (X11; Linux x86_64) AppleWebKit/537.36 (KHTML, like Gecko) draw.io/27.0.9 Chrome/134.0.6998.205 Electron/35.4.0 Safari/537.36" version="27.0.9">
  <diagram name="Page-1" id="gHDuonuj7EWKs1KTuPs1">
    <mxGraphModel dx="1426" dy="771" grid="1" gridSize="10" guides="1" tooltips="1" connect="1" arrows="1" fold="1" page="1" pageScale="1" pageWidth="850" pageHeight="1100" math="0" shadow="0">
      <root>
        <mxCell id="0" />
        <mxCell id="1" parent="0" />
        <mxCell id="LvuUFY8XE9f9ZZx2nTjW-48" value="" style="group" vertex="1" connectable="0" parent="1">
          <mxGeometry x="20" y="80" width="470" height="680" as="geometry" />
        </mxCell>
        <mxCell id="LvuUFY8XE9f9ZZx2nTjW-31" style="edgeStyle=orthogonalEdgeStyle;rounded=0;orthogonalLoop=1;jettySize=auto;html=1;exitX=0.5;exitY=1;exitDx=0;exitDy=0;" edge="1" parent="LvuUFY8XE9f9ZZx2nTjW-48" source="LvuUFY8XE9f9ZZx2nTjW-5" target="LvuUFY8XE9f9ZZx2nTjW-30">
          <mxGeometry relative="1" as="geometry" />
        </mxCell>
        <mxCell id="LvuUFY8XE9f9ZZx2nTjW-5" value="" style="rounded=0;whiteSpace=wrap;html=1;" vertex="1" parent="LvuUFY8XE9f9ZZx2nTjW-48">
          <mxGeometry y="131.36363636363637" width="470" height="200.9090909090909" as="geometry" />
        </mxCell>
        <mxCell id="LvuUFY8XE9f9ZZx2nTjW-40" style="edgeStyle=orthogonalEdgeStyle;rounded=0;orthogonalLoop=1;jettySize=auto;html=1;exitX=0.5;exitY=1;exitDx=0;exitDy=0;exitPerimeter=0;entryX=0.5;entryY=0;entryDx=0;entryDy=0;" edge="1" parent="LvuUFY8XE9f9ZZx2nTjW-48" source="LvuUFY8XE9f9ZZx2nTjW-1" target="LvuUFY8XE9f9ZZx2nTjW-5">
          <mxGeometry relative="1" as="geometry" />
        </mxCell>
        <mxCell id="LvuUFY8XE9f9ZZx2nTjW-1" value="" style="outlineConnect=0;dashed=0;verticalLabelPosition=bottom;verticalAlign=top;align=center;html=1;shape=mxgraph.aws3.classic_load_balancer;fillColor=#F58534;gradientColor=none;" vertex="1" parent="LvuUFY8XE9f9ZZx2nTjW-48">
          <mxGeometry x="211.15441176470588" width="47.69117647058823" height="55.63636363636364" as="geometry" />
        </mxCell>
        <mxCell id="LvuUFY8XE9f9ZZx2nTjW-6" value="" style="outlineConnect=0;dashed=0;verticalLabelPosition=bottom;verticalAlign=top;align=center;html=1;shape=mxgraph.aws3.ec2;fillColor=#F58534;gradientColor=none;" vertex="1" parent="LvuUFY8XE9f9ZZx2nTjW-48">
          <mxGeometry x="27.64705882352941" y="146.8181818181818" width="52.875" height="71.86363636363637" as="geometry" />
        </mxCell>
        <mxCell id="LvuUFY8XE9f9ZZx2nTjW-7" value="" style="outlineConnect=0;dashed=0;verticalLabelPosition=bottom;verticalAlign=top;align=center;html=1;shape=mxgraph.aws3.ec2;fillColor=#F58534;gradientColor=none;" vertex="1" parent="LvuUFY8XE9f9ZZx2nTjW-48">
          <mxGeometry x="115.59926470588236" y="146.8181818181818" width="52.875" height="71.86363636363637" as="geometry" />
        </mxCell>
        <mxCell id="LvuUFY8XE9f9ZZx2nTjW-8" value="" style="outlineConnect=0;dashed=0;verticalLabelPosition=bottom;verticalAlign=top;align=center;html=1;shape=mxgraph.aws3.ec2;fillColor=#F58534;gradientColor=none;" vertex="1" parent="LvuUFY8XE9f9ZZx2nTjW-48">
          <mxGeometry x="214.26470588235296" y="146.8181818181818" width="52.875" height="71.86363636363637" as="geometry" />
        </mxCell>
        <mxCell id="LvuUFY8XE9f9ZZx2nTjW-9" value="" style="outlineConnect=0;dashed=0;verticalLabelPosition=bottom;verticalAlign=top;align=center;html=1;shape=mxgraph.aws3.ec2;fillColor=#F58534;gradientColor=none;" vertex="1" parent="LvuUFY8XE9f9ZZx2nTjW-48">
          <mxGeometry x="215.47426470588235" y="224.0909090909091" width="52.875" height="71.86363636363637" as="geometry" />
        </mxCell>
        <mxCell id="LvuUFY8XE9f9ZZx2nTjW-17" style="edgeStyle=orthogonalEdgeStyle;rounded=0;orthogonalLoop=1;jettySize=auto;html=1;exitX=0.5;exitY=1;exitDx=0;exitDy=0;exitPerimeter=0;" edge="1" parent="LvuUFY8XE9f9ZZx2nTjW-48" source="LvuUFY8XE9f9ZZx2nTjW-10">
          <mxGeometry relative="1" as="geometry">
            <mxPoint x="373.2352941176471" y="278.1818181818182" as="targetPoint" />
            <Array as="points">
              <mxPoint x="143.0735294117647" y="311.4090909090909" />
              <mxPoint x="373.2352941176471" y="311.4090909090909" />
            </Array>
          </mxGeometry>
        </mxCell>
        <mxCell id="LvuUFY8XE9f9ZZx2nTjW-10" value="" style="outlineConnect=0;dashed=0;verticalLabelPosition=bottom;verticalAlign=top;align=center;html=1;shape=mxgraph.aws3.ec2;fillColor=#F58534;gradientColor=none;" vertex="1" parent="LvuUFY8XE9f9ZZx2nTjW-48">
          <mxGeometry x="116.80882352941175" y="224.0909090909091" width="52.875" height="71.86363636363637" as="geometry" />
        </mxCell>
        <mxCell id="LvuUFY8XE9f9ZZx2nTjW-11" value="" style="outlineConnect=0;dashed=0;verticalLabelPosition=bottom;verticalAlign=top;align=center;html=1;shape=mxgraph.aws3.ec2;fillColor=#F58534;gradientColor=none;" vertex="1" parent="LvuUFY8XE9f9ZZx2nTjW-48">
          <mxGeometry x="28.856617647058826" y="224.0909090909091" width="52.875" height="71.86363636363637" as="geometry" />
        </mxCell>
        <mxCell id="LvuUFY8XE9f9ZZx2nTjW-13" value="&lt;font style=&quot;font-size: 24px;&quot;&gt;Video Play Service&lt;/font&gt;" style="text;strokeColor=none;align=center;fillColor=none;html=1;verticalAlign=middle;whiteSpace=wrap;rounded=0;" vertex="1" parent="LvuUFY8XE9f9ZZx2nTjW-48">
          <mxGeometry x="317.94117647058823" y="155.70454545454544" width="103.6764705882353" height="54.09090909090909" as="geometry" />
        </mxCell>
        <mxCell id="LvuUFY8XE9f9ZZx2nTjW-28" style="edgeStyle=orthogonalEdgeStyle;rounded=0;orthogonalLoop=1;jettySize=auto;html=1;exitX=0.1;exitY=0.2;exitDx=0;exitDy=0;exitPerimeter=0;" edge="1" parent="LvuUFY8XE9f9ZZx2nTjW-48" source="LvuUFY8XE9f9ZZx2nTjW-14" target="LvuUFY8XE9f9ZZx2nTjW-6">
          <mxGeometry relative="1" as="geometry" />
        </mxCell>
        <mxCell id="LvuUFY8XE9f9ZZx2nTjW-14" value="" style="aspect=fixed;sketch=0;html=1;dashed=0;whitespace=wrap;verticalLabelPosition=bottom;verticalAlign=top;fillColor=#2875E2;strokeColor=#ffffff;points=[[0.005,0.63,0],[0.1,0.2,0],[0.9,0.2,0],[0.5,0,0],[0.995,0.63,0],[0.72,0.99,0],[0.5,1,0],[0.28,0.99,0]];shape=mxgraph.kubernetes.icon2;kubernetesLabel=1;prIcon=job" vertex="1" parent="LvuUFY8XE9f9ZZx2nTjW-48">
          <mxGeometry x="359.4117647058824" y="241.47727272727275" width="34.55882352941176" height="33.1764705882353" as="geometry" />
        </mxCell>
        <mxCell id="LvuUFY8XE9f9ZZx2nTjW-15" style="edgeStyle=orthogonalEdgeStyle;rounded=0;orthogonalLoop=1;jettySize=auto;html=1;exitX=0.5;exitY=1;exitDx=0;exitDy=0;exitPerimeter=0;entryX=0.005;entryY=0.63;entryDx=0;entryDy=0;entryPerimeter=0;" edge="1" parent="LvuUFY8XE9f9ZZx2nTjW-48" source="LvuUFY8XE9f9ZZx2nTjW-8" target="LvuUFY8XE9f9ZZx2nTjW-14">
          <mxGeometry relative="1" as="geometry" />
        </mxCell>
        <mxCell id="LvuUFY8XE9f9ZZx2nTjW-16" style="edgeStyle=orthogonalEdgeStyle;rounded=0;orthogonalLoop=1;jettySize=auto;html=1;exitX=0.5;exitY=1;exitDx=0;exitDy=0;exitPerimeter=0;entryX=0.5;entryY=1;entryDx=0;entryDy=0;entryPerimeter=0;" edge="1" parent="LvuUFY8XE9f9ZZx2nTjW-48" source="LvuUFY8XE9f9ZZx2nTjW-9" target="LvuUFY8XE9f9ZZx2nTjW-14">
          <mxGeometry relative="1" as="geometry" />
        </mxCell>
        <mxCell id="LvuUFY8XE9f9ZZx2nTjW-20" style="edgeStyle=orthogonalEdgeStyle;rounded=0;orthogonalLoop=1;jettySize=auto;html=1;exitX=0.5;exitY=1;exitDx=0;exitDy=0;exitPerimeter=0;entryX=0.6;entryY=0.781;entryDx=0;entryDy=0;entryPerimeter=0;" edge="1" parent="LvuUFY8XE9f9ZZx2nTjW-48" source="LvuUFY8XE9f9ZZx2nTjW-7" target="LvuUFY8XE9f9ZZx2nTjW-14">
          <mxGeometry relative="1" as="geometry">
            <Array as="points">
              <mxPoint x="142.3823529411765" y="226.4090909090909" />
              <mxPoint x="380.14705882352945" y="226.4090909090909" />
            </Array>
          </mxGeometry>
        </mxCell>
        <mxCell id="LvuUFY8XE9f9ZZx2nTjW-29" style="edgeStyle=orthogonalEdgeStyle;rounded=0;orthogonalLoop=1;jettySize=auto;html=1;exitX=0.28;exitY=0.99;exitDx=0;exitDy=0;exitPerimeter=0;entryX=0.5;entryY=1;entryDx=0;entryDy=0;entryPerimeter=0;" edge="1" parent="LvuUFY8XE9f9ZZx2nTjW-48" source="LvuUFY8XE9f9ZZx2nTjW-14" target="LvuUFY8XE9f9ZZx2nTjW-11">
          <mxGeometry relative="1" as="geometry" />
        </mxCell>
        <mxCell id="LvuUFY8XE9f9ZZx2nTjW-41" style="edgeStyle=orthogonalEdgeStyle;rounded=0;orthogonalLoop=1;jettySize=auto;html=1;exitX=0.5;exitY=1;exitDx=0;exitDy=0;exitPerimeter=0;entryX=0.5;entryY=0;entryDx=0;entryDy=0;" edge="1" parent="LvuUFY8XE9f9ZZx2nTjW-48" source="LvuUFY8XE9f9ZZx2nTjW-30" target="LvuUFY8XE9f9ZZx2nTjW-32">
          <mxGeometry relative="1" as="geometry" />
        </mxCell>
        <mxCell id="LvuUFY8XE9f9ZZx2nTjW-30" value="" style="outlineConnect=0;dashed=0;verticalLabelPosition=bottom;verticalAlign=top;align=center;html=1;shape=mxgraph.aws3.classic_load_balancer;fillColor=#F58534;gradientColor=none;" vertex="1" parent="LvuUFY8XE9f9ZZx2nTjW-48">
          <mxGeometry x="211.15441176470588" y="394.0909090909091" width="47.69117647058823" height="55.63636363636364" as="geometry" />
        </mxCell>
        <mxCell id="LvuUFY8XE9f9ZZx2nTjW-32" value="" style="rounded=0;whiteSpace=wrap;html=1;" vertex="1" parent="LvuUFY8XE9f9ZZx2nTjW-48">
          <mxGeometry x="86.3970588235294" y="502.27272727272725" width="297.2058823529412" height="177.72727272727275" as="geometry" />
        </mxCell>
        <mxCell id="LvuUFY8XE9f9ZZx2nTjW-34" value="" style="outlineConnect=0;dashed=0;verticalLabelPosition=bottom;verticalAlign=top;align=center;html=1;shape=mxgraph.aws3.rds_db_instance;fillColor=#2E73B8;gradientColor=none;" vertex="1" parent="LvuUFY8XE9f9ZZx2nTjW-48">
          <mxGeometry x="116.80882352941175" y="525.4545454545455" width="49.0735294117647" height="69.54545454545455" as="geometry" />
        </mxCell>
        <mxCell id="LvuUFY8XE9f9ZZx2nTjW-35" value="" style="outlineConnect=0;dashed=0;verticalLabelPosition=bottom;verticalAlign=top;align=center;html=1;shape=mxgraph.aws3.rds_db_instance;fillColor=#2E73B8;gradientColor=none;" vertex="1" parent="LvuUFY8XE9f9ZZx2nTjW-48">
          <mxGeometry x="207.3529411764706" y="525.4545454545455" width="49.0735294117647" height="69.54545454545455" as="geometry" />
        </mxCell>
        <mxCell id="LvuUFY8XE9f9ZZx2nTjW-36" value="" style="outlineConnect=0;dashed=0;verticalLabelPosition=bottom;verticalAlign=top;align=center;html=1;shape=mxgraph.aws3.rds_db_instance;fillColor=#2E73B8;gradientColor=none;" vertex="1" parent="LvuUFY8XE9f9ZZx2nTjW-48">
          <mxGeometry x="297.2058823529412" y="525.4545454545455" width="49.0735294117647" height="69.54545454545455" as="geometry" />
        </mxCell>
        <mxCell id="LvuUFY8XE9f9ZZx2nTjW-37" value="" style="outlineConnect=0;dashed=0;verticalLabelPosition=bottom;verticalAlign=top;align=center;html=1;shape=mxgraph.aws3.rds_db_instance;fillColor=#2E73B8;gradientColor=none;" vertex="1" parent="LvuUFY8XE9f9ZZx2nTjW-48">
          <mxGeometry x="297.5514705882353" y="602.7272727272727" width="49.0735294117647" height="69.54545454545455" as="geometry" />
        </mxCell>
        <mxCell id="LvuUFY8XE9f9ZZx2nTjW-38" value="" style="outlineConnect=0;dashed=0;verticalLabelPosition=bottom;verticalAlign=top;align=center;html=1;shape=mxgraph.aws3.rds_db_instance;fillColor=#2E73B8;gradientColor=none;" vertex="1" parent="LvuUFY8XE9f9ZZx2nTjW-48">
          <mxGeometry x="207.69852941176472" y="602.7272727272727" width="49.0735294117647" height="69.54545454545455" as="geometry" />
        </mxCell>
        <mxCell id="LvuUFY8XE9f9ZZx2nTjW-39" value="" style="outlineConnect=0;dashed=0;verticalLabelPosition=bottom;verticalAlign=top;align=center;html=1;shape=mxgraph.aws3.rds_db_instance;fillColor=#2E73B8;gradientColor=none;" vertex="1" parent="LvuUFY8XE9f9ZZx2nTjW-48">
          <mxGeometry x="117.15441176470588" y="602.7272727272727" width="49.0735294117647" height="69.54545454545455" as="geometry" />
        </mxCell>
        <mxCell id="LvuUFY8XE9f9ZZx2nTjW-42" value="" style="image;aspect=fixed;perimeter=ellipsePerimeter;html=1;align=center;shadow=0;dashed=0;fontColor=#4277BB;labelBackgroundColor=default;fontSize=12;spacingTop=3;image=img/lib/ibm/applications/microservice.svg;" vertex="1" parent="LvuUFY8XE9f9ZZx2nTjW-48">
          <mxGeometry x="138.23529411764704" y="510" width="56.814705882352946" height="41.47058823529412" as="geometry" />
        </mxCell>
        <mxCell id="LvuUFY8XE9f9ZZx2nTjW-43" value="" style="image;aspect=fixed;perimeter=ellipsePerimeter;html=1;align=center;shadow=0;dashed=0;fontColor=#4277BB;labelBackgroundColor=default;fontSize=12;spacingTop=3;image=img/lib/ibm/applications/microservice.svg;" vertex="1" parent="LvuUFY8XE9f9ZZx2nTjW-48">
          <mxGeometry x="238.4558823529412" y="510" width="56.814705882352946" height="41.47058823529412" as="geometry" />
        </mxCell>
        <mxCell id="LvuUFY8XE9f9ZZx2nTjW-44" value="" style="image;aspect=fixed;perimeter=ellipsePerimeter;html=1;align=center;shadow=0;dashed=0;fontColor=#4277BB;labelBackgroundColor=default;fontSize=12;spacingTop=3;image=img/lib/ibm/applications/microservice.svg;" vertex="1" parent="LvuUFY8XE9f9ZZx2nTjW-48">
          <mxGeometry x="324.8529411764706" y="510" width="56.814705882352946" height="41.47058823529412" as="geometry" />
        </mxCell>
        <mxCell id="LvuUFY8XE9f9ZZx2nTjW-45" value="" style="image;aspect=fixed;perimeter=ellipsePerimeter;html=1;align=center;shadow=0;dashed=0;fontColor=#4277BB;labelBackgroundColor=default;fontSize=12;spacingTop=3;image=img/lib/ibm/applications/microservice.svg;" vertex="1" parent="LvuUFY8XE9f9ZZx2nTjW-48">
          <mxGeometry x="326.7882352941176" y="595" width="56.814705882352946" height="41.47058823529412" as="geometry" />
        </mxCell>
        <mxCell id="LvuUFY8XE9f9ZZx2nTjW-46" value="" style="image;aspect=fixed;perimeter=ellipsePerimeter;html=1;align=center;shadow=0;dashed=0;fontColor=#4277BB;labelBackgroundColor=default;fontSize=12;spacingTop=3;image=img/lib/ibm/applications/microservice.svg;" vertex="1" parent="LvuUFY8XE9f9ZZx2nTjW-48">
          <mxGeometry x="238.45588235294116" y="595" width="56.814705882352946" height="41.47058823529412" as="geometry" />
        </mxCell>
        <mxCell id="LvuUFY8XE9f9ZZx2nTjW-47" value="" style="image;aspect=fixed;perimeter=ellipsePerimeter;html=1;align=center;shadow=0;dashed=0;fontColor=#4277BB;labelBackgroundColor=default;fontSize=12;spacingTop=3;image=img/lib/ibm/applications/microservice.svg;" vertex="1" parent="LvuUFY8XE9f9ZZx2nTjW-48">
          <mxGeometry x="138.23529411764702" y="595" width="56.814705882352946" height="41.47058823529412" as="geometry" />
        </mxCell>
        <mxCell id="LvuUFY8XE9f9ZZx2nTjW-49" value="Actor" style="shape=umlActor;verticalLabelPosition=bottom;verticalAlign=top;html=1;outlineConnect=0;" vertex="1" parent="1">
          <mxGeometry x="660" y="100" width="40" height="80" as="geometry" />
        </mxCell>
        <mxCell id="LvuUFY8XE9f9ZZx2nTjW-55" style="edgeStyle=orthogonalEdgeStyle;rounded=0;orthogonalLoop=1;jettySize=auto;html=1;exitX=0.5;exitY=1;exitDx=0;exitDy=0;" edge="1" parent="1" source="LvuUFY8XE9f9ZZx2nTjW-50" target="LvuUFY8XE9f9ZZx2nTjW-54">
          <mxGeometry relative="1" as="geometry" />
        </mxCell>
        <mxCell id="LvuUFY8XE9f9ZZx2nTjW-50" value="" style="image;aspect=fixed;perimeter=ellipsePerimeter;html=1;align=center;shadow=0;dashed=0;fontColor=#4277BB;labelBackgroundColor=default;fontSize=12;spacingTop=3;image=img/lib/ibm/applications/microservice.svg;" vertex="1" parent="1">
          <mxGeometry x="638.9" y="300" width="82.2" height="60" as="geometry" />
        </mxCell>
        <mxCell id="LvuUFY8XE9f9ZZx2nTjW-53" style="edgeStyle=orthogonalEdgeStyle;rounded=0;orthogonalLoop=1;jettySize=auto;html=1;exitX=0;exitY=1;exitDx=0;exitDy=0;exitPerimeter=0;entryX=0.257;entryY=0.167;entryDx=0;entryDy=0;entryPerimeter=0;" edge="1" parent="1" source="LvuUFY8XE9f9ZZx2nTjW-49" target="LvuUFY8XE9f9ZZx2nTjW-50">
          <mxGeometry relative="1" as="geometry" />
        </mxCell>
        <mxCell id="LvuUFY8XE9f9ZZx2nTjW-54" value="" style="outlineConnect=0;dashed=0;verticalLabelPosition=bottom;verticalAlign=top;align=center;html=1;shape=mxgraph.aws3.rds_db_instance;fillColor=#2E73B8;gradientColor=none;" vertex="1" parent="1">
          <mxGeometry x="655.25" y="460" width="49.5" height="66" as="geometry" />
        </mxCell>
        <mxCell id="LvuUFY8XE9f9ZZx2nTjW-57" style="edgeStyle=orthogonalEdgeStyle;rounded=0;orthogonalLoop=1;jettySize=auto;html=1;exitX=0.005;exitY=0.63;exitDx=0;exitDy=0;exitPerimeter=0;" edge="1" parent="1" source="LvuUFY8XE9f9ZZx2nTjW-56" target="LvuUFY8XE9f9ZZx2nTjW-54">
          <mxGeometry relative="1" as="geometry" />
        </mxCell>
        <mxCell id="LvuUFY8XE9f9ZZx2nTjW-58" value="Listen to changes" style="edgeLabel;html=1;align=center;verticalAlign=middle;resizable=0;points=[];" vertex="1" connectable="0" parent="LvuUFY8XE9f9ZZx2nTjW-57">
          <mxGeometry x="0.0671" y="1" relative="1" as="geometry">
            <mxPoint as="offset" />
          </mxGeometry>
        </mxCell>
        <mxCell id="LvuUFY8XE9f9ZZx2nTjW-59" style="edgeStyle=orthogonalEdgeStyle;rounded=0;orthogonalLoop=1;jettySize=auto;html=1;exitX=0.5;exitY=1;exitDx=0;exitDy=0;exitPerimeter=0;entryX=1;entryY=0.5;entryDx=0;entryDy=0;" edge="1" parent="1" source="LvuUFY8XE9f9ZZx2nTjW-56" target="LvuUFY8XE9f9ZZx2nTjW-32">
          <mxGeometry relative="1" as="geometry" />
        </mxCell>
        <mxCell id="LvuUFY8XE9f9ZZx2nTjW-60" value="U&lt;span style=&quot;background-color: light-dark(#ffffff, var(--ge-dark-color, #121212)); color: light-dark(rgb(0, 0, 0), rgb(255, 255, 255));&quot;&gt;pdate read-only instances&lt;/span&gt;" style="edgeLabel;html=1;align=center;verticalAlign=middle;resizable=0;points=[];" vertex="1" connectable="0" parent="LvuUFY8XE9f9ZZx2nTjW-59">
          <mxGeometry x="-0.0538" y="3" relative="1" as="geometry">
            <mxPoint y="-3" as="offset" />
          </mxGeometry>
        </mxCell>
        <mxCell id="LvuUFY8XE9f9ZZx2nTjW-56" value="" style="aspect=fixed;sketch=0;html=1;dashed=0;whitespace=wrap;verticalLabelPosition=bottom;verticalAlign=top;fillColor=#2875E2;strokeColor=#ffffff;points=[[0.005,0.63,0],[0.1,0.2,0],[0.9,0.2,0],[0.5,0,0],[0.995,0.63,0],[0.72,0.99,0],[0.5,1,0],[0.28,0.99,0]];shape=mxgraph.kubernetes.icon2;kubernetesLabel=1;prIcon=job" vertex="1" parent="1">
          <mxGeometry x="750" y="580" width="50" height="48" as="geometry" />
        </mxCell>
      </root>
    </mxGraphModel>
  </diagram>
</mxfile>
